#!OML:ASF F:\VICON\USERDATA\INSTALL\rory3\rory3.ASF
:FULLY-SPECIFIED
:DEGREES
3193
root 0.384896 15.0561 -1.59758 11.5418 -2.12781 -0.0112967
lowerback 28.6172 0.867042 -2.0259
upperback 4.77903 0.252087 -2.01856
thorax -10.4601 0.145761 -1.20424
lowerneck -5.81068 -7.90985 -13.4208
upperneck -6.66741 -9.50787 20.2025
head 0.783248 -4.6403 8.07685
rclavicle -8.74653e-015 7.95139e-015
rhumerus 53.4223 -33.3876 -24.1756
rradius 105.972
rwrist -31.4644
rhand -4.45056 20.0225
rfingers 7.12502
rthumb 21.3212 -8.82459
lclavicle -8.74653e-015 7.95139e-015
lhumerus -35.0574 -0.618559 74.6961
lradius 39.5511
lwrist 11.482
lhand -9.58433 12.1518
lfingers 7.12502
lthumb 16.3839 41.4799
rfemur -42.393 6.83665 13.4217
rtibia 52.64
rfoot -16.7109 -11.4163
rtoes -17.6761
lfemur -40.6013 -2.36617 -15.9135
ltibia 50.9895
lfoot -16.4576 3.37107
ltoes -17.1416
3194
root 0.38462 15.037 -1.6075 11.6481 -2.11316 -0.122442
lowerback 28.7051 0.873206 -1.93692
upperback 4.74098 0.284921 -1.99583
thorax -10.5477 0.15824 -1.24414
lowerneck -5.74146 -7.93715 -13.4581
upperneck -6.71867 -9.54452 20.1905
head 0.764309 -4.66265 8.08016
rclavicle 1.59028e-015 1.90833e-014
rhumerus 53.2159 -33.4246 -24.1799
rradius 106.165
rwrist -31.5138
rhand -4.01267 20.2946
rfingers 7.12502
rthumb 21.7418 -8.50436
lclavicle 1.59028e-015 1.90833e-014
lhumerus -35.2425 -0.686522 74.6702
lradius 39.4064
lwrist 11.6263
lhand -9.68398 11.8343
lfingers 7.12502
lthumb 16.2879 41.1702
rfemur -42.7974 6.71224 13.5571
rtibia 53.106
rfoot -16.7974 -11.1468
rtoes -15.7444
lfemur -41.0378 -2.25909 -15.8068
ltibia 51.4613
lfoot -16.5691 3.37549
ltoes -17.6817
3195
root 0.381766 15.0172 -1.61627 11.7555 -2.1044 -0.213614
lowerback 28.7616 0.891429 -1.91947
upperback 4.7425 0.316156 -1.95625
thorax -10.5744 0.172675 -1.22176
lowerneck -5.80014 -7.95826 -13.5495
upperneck -6.74844 -9.5592 20.2611
head 0.777861 -4.66651 8.11579
rclavicle 1.39149e-014 -2.42517e-014
rhumerus 53.1264 -33.4914 -24.1726
rradius 106.29
rwrist -31.4595
rhand -3.70843 20.3306
rfingers 7.12502
rthumb 22.0339 -8.43421
lclavicle 1.39149e-014 -2.42517e-014
lhumerus -35.3611 -0.675731 74.6787
lradius 39.1834
lwrist 11.855
lhand -9.96933 11.1606
lfingers 7.12502
lthumb 16.0132 40.5188
rfemur -43.169 6.57917 13.6897
rtibia 53.508
rfoot -16.8988 -11.0914
rtoes -15.8528
lfemur -41.4553 -2.20761 -15.6895
ltibia 51.9254
lfoot -16.721 3.30938
ltoes -17.6589
3196
root 0.378823 14.9924 -1.62589 11.882 -2.01458 -0.294085
lowerback 28.8356 0.864538 -1.8545
upperback 4.70796 0.301075 -1.93206
thorax -10.6515 0.164034 -1.22825
lowerneck -5.81185 -7.96801 -13.5954
upperneck -6.79143 -9.56361 20.332
head 0.775858 -4.66889 8.14672
rclavicle -7.95139e-015 -1.51076e-014
rhumerus 52.9698 -33.5032 -24.1215
rradius 106.525
rwrist -31.5479
rhand -3.70956 20.0728
rfingers 7.12502
rthumb 22.0328 -8.69217
lclavicle -7.95139e-015 -1.51076e-014
lhumerus -35.5352 -0.592073 74.6132
lradius 39.0385
lwrist 11.8392
lhand -10.1252 10.8544
lfingers 7.12502
lthumb 15.8631 40.2246
rfemur -43.5432 6.37909 13.8278
rtibia 53.8507
rfoot -16.9225 -11.3394
rtoes -18.3269
lfemur -41.9245 -2.22671 -15.566
ltibia 52.3925
lfoot -16.824 3.24772
ltoes -17.6603
3197
root 0.376852 14.97 -1.63496 12.0078 -1.87951 -0.373311
lowerback 28.871 0.825782 -1.75526
upperback 4.67925 0.283457 -1.90381
thorax -10.7023 0.153113 -1.24819
lowerneck -5.78905 -7.986 -13.5699
upperneck -6.839 -9.58621 20.3277
head 0.76079 -4.68323 8.14115
rclavicle 3.97569e-015 -2.62396e-014
rhumerus 52.8231 -33.4874 -24.0543
rradius 106.692
rwrist -31.6789
rhand -3.72466 19.9222
rfingers 7.12502
rthumb 22.0183 -8.84442
lclavicle 3.97569e-015 -2.62396e-014
lhumerus -35.6237 -0.55257 74.5495
lradius 38.9362
lwrist 11.6252
lhand -10.0686 11.1838
lfingers 7.12502
lthumb 15.9175 40.5497
rfemur -43.8899 6.16312 13.959
rtibia 54.1764
rfoot -16.9915 -11.4209
rtoes -19.3478
lfemur -42.367 -2.29117 -15.4311
ltibia 52.8337
lfoot -16.9112 3.16158
ltoes -17.5555
3198
root 0.374895 14.9502 -1.64359 12.0683 -1.78442 -0.4001
lowerback 28.9739 0.836947 -1.70621
upperback 4.66235 0.311292 -1.88618
thorax -10.7734 0.164567 -1.26896
lowerneck -5.83052 -8.04448 -13.5302
upperneck -6.79387 -9.67034 20.2898
head 0.789932 -4.72265 8.11255
rclavicle 1.19271e-015 -1.55052e-014
rhumerus 52.575 -33.4872 -23.8975
rradius 106.83
rwrist -31.6081
rhand -3.87411 19.9958
rfingers 7.12502
rthumb 21.8748 -8.78764
lclavicle 1.19271e-015 -1.55052e-014
lhumerus -35.6679 -0.636728 74.5277
lradius 38.877
lwrist 11.5492
lhand -9.88418 11.5411
lfingers 7.12502
lthumb 16.0952 40.8927
rfemur -44.1669 5.96438 14.0331
rtibia 54.5029
rfoot -17.0596 -11.3666
rtoes -19.2837
lfemur -42.7058 -2.3376 -15.3639
ltibia 53.2255
lfoot -16.9957 3.07177
ltoes -17.3407
3199
root 0.372532 14.9312 -1.65136 12.1376 -1.73939 -0.393063
lowerback 29.0835 0.867746 -1.71662
upperback 4.62862 0.342468 -1.89281
thorax -10.8674 0.179153 -1.28469
lowerneck -5.83784 -8.08002 -13.4676
upperneck -6.7683 -9.7249 20.2835
head 0.803956 -4.75023 8.09446
rclavicle -4.77083e-015 1.03368e-014
rhumerus 52.3556 -33.5009 -23.8361
rradius 106.982
rwrist -31.5205
rhand -3.99062 20.1239
rfingers 7.12502
rthumb 21.763 -8.67257
lclavicle -4.77083e-015 1.03368e-014
lhumerus -35.7287 -0.773451 74.496
lradius 38.8121
lwrist 11.5358
lhand -9.83528 11.6574
lfingers 7.12502
lthumb 16.1423 41.0052
rfemur -44.4673 5.78362 14.0666
rtibia 54.829
rfoot -17.1024 -11.2892
rtoes -19.2586
lfemur -43.0241 -2.35369 -15.3489
ltibia 53.5693
lfoot -17.0546 3.05529
ltoes -17.429
